<svg id="Layer_1" data-name="Layer 1" xmlns="http://www.w3.org/2000/svg" viewBox="0 0 49.6 49.6"><defs><style>.cls-1{fill:#bbd86e;}</style></defs><path class="cls-1" d="M24.8,11.9A12.8,12.8,0,1,0,37.6,24.7,12.82,12.82,0,0,0,24.8,11.9Zm0,21A8.2,8.2,0,1,1,33,24.7,8.24,8.24,0,0,1,24.8,32.9Z"/><circle class="cls-1" cx="38.1" cy="11.6" r="2.9"/><path class="cls-1" d="M45.6,4.1A14.24,14.24,0,0,0,35.1,0H14.5C5.8,0,0,5.8,0,14.5V35A14.39,14.39,0,0,0,4.2,45.7a14.59,14.59,0,0,0,10.4,3.9H35a14.77,14.77,0,0,0,10.5-3.9,14.32,14.32,0,0,0,4.1-10.6V14.5A14.34,14.34,0,0,0,45.6,4.1Zm-.4,31a9.77,9.77,0,0,1-2.9,7.3A10.34,10.34,0,0,1,35,45H14.6a10.34,10.34,0,0,1-7.3-2.6A10.05,10.05,0,0,1,4.6,35V14.5A10,10,0,0,1,7.3,7.2a10.17,10.17,0,0,1,7.3-2.6H35.2a10,10,0,0,1,7.3,2.7,10.32,10.32,0,0,1,2.7,7.2V35.1Z"/></svg>